<svg width="1920" height="922" xmlns="http://www.w3.org/2000/svg"><g><path d="M-113.27546302392605,-37.854016312128735L-125.07637149217186,65.75698904685561L113.176120958272,51.856470690502576Z" fill="#f9f7fc" stroke="#f9f7fc"/><path d="M-113.27546302392605,-37.854016312128735L113.176120958272,51.856470690502576L92.6445019174095,-127.8430425185357Z" fill="#f7f6fa" stroke="#f7f6fa"/><path d="M92.6445019174095,-127.8430425185357L113.176120958272,51.856470690502576L218.3496954370733,-93.39084658228994Z" fill="#f1f1f8" stroke="#f1f1f8"/><path d="M92.6445019174095,-127.8430425185357L218.3496954370733,-93.39084658228994L583.7016119233216,-133.88470230678925Z" fill="#e8ebf4" stroke="#e8ebf4"/><path d="M218.3496954370733,-93.39084658228994L113.176120958272,51.856470690502576L264.0483505582685,30.620652497856916Z" fill="#edeff6" stroke="#edeff6"/><path d="M218.3496954370733,-93.39084658228994L264.0483505582685,30.620652497856916L365.19214170255,-50.330988156067804Z" fill="#e9ecf5" stroke="#e9ecf5"/><path d="M218.3496954370733,-93.39084658228994L365.19214170255,-50.330988156067804L583.7016119233216,-133.88470230678925Z" fill="#e3e8f2" stroke="#e3e8f2"/><path d="M365.19214170255,-50.330988156067804L264.0483505582685,30.620652497856916L324.3841527062093,122.00626032423294Z" fill="#e5e9f4" stroke="#e5e9f4"/><path d="M365.19214170255,-50.330988156067804L324.3841527062093,122.00626032423294L575.1236381355775,37.50975377311188Z" fill="#dfe6f2" stroke="#dfe6f2"/><path d="M365.19214170255,-50.330988156067804L575.1236381355775,37.50975377311188L583.7016119233216,-133.88470230678925Z" fill="#dce3f0" stroke="#dce3f0"/><path d="M583.7016119233216,-133.88470230678925L575.1236381355775,37.50975377311188L630.2467941833178,-17.179564382678862Z" fill="#d5e0ee" stroke="#d5e0ee"/><path d="M583.7016119233216,-133.88470230678925L630.2467941833178,-17.179564382678862L797.3759042417902,-22.837492245018794Z" fill="#d0deed" stroke="#d0deed"/><path d="M583.7016119233216,-133.88470230678925L797.3759042417902,-22.837492245018794L995.5987290182916,-71.84342818603706Z" fill="#c7daea" stroke="#c7daea"/><path d="M583.7016119233216,-133.88470230678925L995.5987290182916,-71.84342818603706L1383.9203819377158,-91.1919595989065Z" fill="#b7d3e6" stroke="#b7d3e6"/><path d="M583.7016119233216,-133.88470230678925L1383.9203819377158,-91.1919595989065L1713.8161432894713,-133.06017432744233Z" fill="#9bc4df" stroke="#9bc4df"/><path d="M630.2467941833178,-17.179564382678862L575.1236381355775,37.50975377311188L734.5018983814533,42.91881793279885Z" fill="#d0deed" stroke="#d0deed"/><path d="M630.2467941833178,-17.179564382678862L734.5018983814533,42.91881793279885L797.3759042417902,-22.837492245018794Z" fill="#ccdcec" stroke="#ccdcec"/><path d="M797.3759042417902,-22.837492245018794L734.5018983814533,42.91881793279885L832.125748161329,52.29099491225658Z" fill="#c5d9ea" stroke="#c5d9ea"/><path d="M797.3759042417902,-22.837492245018794L832.125748161329,52.29099491225658L995.5987290182916,-71.84342818603706Z" fill="#c0d7e9" stroke="#c0d7e9"/><path d="M995.5987290182916,-71.84342818603706L832.125748161329,52.29099491225658L1004.5709381113254,25.218383923244456Z" fill="#bbd5e8" stroke="#bbd5e8"/><path d="M995.5987290182916,-71.84342818603706L1004.5709381113254,25.218383923244456L1123.4400177974946,-18.110874286958037Z" fill="#b0cfe5" stroke="#b0cfe5"/><path d="M995.5987290182916,-71.84342818603706L1123.4400177974946,-18.110874286958037L1296.6301075873157,-70.94782654602473Z" fill="#a5cae1" stroke="#a5cae1"/><path d="M995.5987290182916,-71.84342818603706L1296.6301075873157,-70.94782654602473L1383.9203819377158,-91.1919595989065Z" fill="#9bc4df" stroke="#9bc4df"/><path d="M1123.4400177974946,-18.110874286958037L1004.5709381113254,25.218383923244456L1129.6637037788819,129.11195229339654Z" fill="#a8cbe3" stroke="#a8cbe3"/><path d="M1123.4400177974946,-18.110874286958037L1129.6637037788819,129.11195229339654L1279.2330639272454,57.27626292968441Z" fill="#9dc5e0" stroke="#9dc5e0"/><path d="M1123.4400177974946,-18.110874286958037L1279.2330639272454,57.27626292968441L1296.6301075873157,-70.94782654602473Z" fill="#9ac4de" stroke="#9ac4de"/><path d="M1296.6301075873157,-70.94782654602473L1279.2330639272454,57.27626292968441L1374.5860482401006,74.87524366606283Z" fill="#8fbfdc" stroke="#8fbfdc"/><path d="M1296.6301075873157,-70.94782654602473L1374.5860482401006,74.87524366606283L1383.9203819377158,-91.1919595989065Z" fill="#8cbddb" stroke="#8cbddb"/><path d="M1383.9203819377158,-91.1919595989065L1374.5860482401006,74.87524366606283L1552.8843326101626,28.316629542213573Z" fill="#82b8d8" stroke="#82b8d8"/><path d="M1383.9203819377158,-91.1919595989065L1552.8843326101626,28.316629542213573L1595.7102185332549,-113.4471234260144Z" fill="#80b4d5" stroke="#80b4d5"/><path d="M1383.9203819377158,-91.1919595989065L1595.7102185332549,-113.4471234260144L1713.8161432894713,-133.06017432744233Z" fill="#80b0d4" stroke="#80b0d4"/><path d="M1595.7102185332549,-113.4471234260144L1552.8843326101626,28.316629542213573L1665.4795294144894,15.7864695284483Z" fill="#80aed2" stroke="#80aed2"/><path d="M1595.7102185332549,-113.4471234260144L1665.4795294144894,15.7864695284483L1713.8161432894713,-133.06017432744233Z" fill="#80abd1" stroke="#80abd1"/><path d="M1713.8161432894713,-133.06017432744233L1665.4795294144894,15.7864695284483L1849.5449612142463,-51.797682044316375Z" fill="#80a6ce" stroke="#80a6ce"/><path d="M1713.8161432894713,-133.06017432744233L1849.5449612142463,-51.797682044316375L1987.8677933287272,-53.311719655074086Z" fill="#809fca" stroke="#809fca"/><path d="M1849.5449612142463,-51.797682044316375L1665.4795294144894,15.7864695284483L1822.4631876886774,71.2005095541181Z" fill="#7fa3cd" stroke="#7fa3cd"/><path d="M1849.5449612142463,-51.797682044316375L1822.4631876886774,71.2005095541181L1987.8677933287272,-53.311719655074086Z" fill="#809dc9" stroke="#809dc9"/><path d="M1987.8677933287272,-53.311719655074086L1822.4631876886774,71.2005095541181L2034.4482181885594,41.13586819844702Z" fill="#7e99c7" stroke="#7e99c7"/><path d="M-125.07637149217186,65.75698904685561L-122.62233376561994,985.9421644755181L-93.14720636252252,408.4071211669459Z" fill="#bedcf7" stroke="#bedcf7"/><path d="M-125.07637149217186,65.75698904685561L-93.14720636252252,408.4071211669459L-21.96165291297062,221.66889229168765Z" fill="#edf2fd" stroke="#edf2fd"/><path d="M-125.07637149217186,65.75698904685561L-21.96165291297062,221.66889229168765L113.176120958272,51.856470690502576Z" fill="#f1f4fb" stroke="#f1f4fb"/><path d="M113.176120958272,51.856470690502576L-21.96165291297062,221.66889229168765L112.5535819800431,203.65325399277557Z" fill="#eaeff9" stroke="#eaeff9"/><path d="M113.176120958272,51.856470690502576L112.5535819800431,203.65325399277557L181.22944393138718,231.88073100972377Z" fill="#e6ecf8" stroke="#e6ecf8"/><path d="M113.176120958272,51.856470690502576L181.22944393138718,231.88073100972377L264.0483505582685,30.620652497856916Z" fill="#e7ecf7" stroke="#e7ecf7"/><path d="M264.0483505582685,30.620652497856916L181.22944393138718,231.88073100972377L324.3841527062093,122.00626032423294Z" fill="#e2e9f5" stroke="#e2e9f5"/><path d="M324.3841527062093,122.00626032423294L181.22944393138718,231.88073100972377L391.0384041971604,283.7055451139315Z" fill="#dae4f4" stroke="#dae4f4"/><path d="M324.3841527062093,122.00626032423294L391.0384041971604,283.7055451139315L494.11059560146407,200.88614908225543Z" fill="#d5e1f2" stroke="#d5e1f2"/><path d="M324.3841527062093,122.00626032423294L494.11059560146407,200.88614908225543L575.1236381355775,37.50975377311188Z" fill="#d7e1f1" stroke="#d7e1f1"/><path d="M575.1236381355775,37.50975377311188L494.11059560146407,200.88614908225543L654.9494661412753,276.2858426081738Z" fill="#ccdcee" stroke="#ccdcee"/><path d="M575.1236381355775,37.50975377311188L654.9494661412753,276.2858426081738L734.5018983814533,42.91881793279885Z" fill="#c9daed" stroke="#c9daed"/><path d="M734.5018983814533,42.91881793279885L654.9494661412753,276.2858426081738L787.614194235017,233.2299636489329Z" fill="#c0d6ec" stroke="#c0d6ec"/><path d="M734.5018983814533,42.91881793279885L787.614194235017,233.2299636489329L832.125748161329,52.29099491225658Z" fill="#c0d7eb" stroke="#c0d7eb"/><path d="M832.125748161329,52.29099491225658L787.614194235017,233.2299636489329L1024.016226159626,215.17272999768244Z" fill="#b5d1e9" stroke="#b5d1e9"/><path d="M832.125748161329,52.29099491225658L1024.016226159626,215.17272999768244L1004.5709381113254,25.218383923244456Z" fill="#b4d1e7" stroke="#b4d1e7"/><path d="M1004.5709381113254,25.218383923244456L1024.016226159626,215.17272999768244L1129.6637037788819,129.11195229339654Z" fill="#a7cbe4" stroke="#a7cbe4"/><path d="M1129.6637037788819,129.11195229339654L1024.016226159626,215.17272999768244L1098.5694483099296,229.18525779731183Z" fill="#9fc7e3" stroke="#9fc7e3"/><path d="M1129.6637037788819,129.11195229339654L1098.5694483099296,229.18525779731183L1267.6348321835999,167.81815159285333Z" fill="#97c3e1" stroke="#97c3e1"/><path d="M1129.6637037788819,129.11195229339654L1267.6348321835999,167.81815159285333L1279.2330639272454,57.27626292968441Z" fill="#94c0df" stroke="#94c0df"/><path d="M1279.2330639272454,57.27626292968441L1267.6348321835999,167.81815159285333L1374.5860482401006,74.87524366606283Z" fill="#8bbcdc" stroke="#8bbcdc"/><path d="M1374.5860482401006,74.87524366606283L1267.6348321835999,167.81815159285333L1438.377400497906,206.1714669483229Z" fill="#82b7da" stroke="#82b7da"/><path d="M1374.5860482401006,74.87524366606283L1438.377400497906,206.1714669483229L1552.8843326101626,28.316629542213573Z" fill="#7ab3d7" stroke="#7ab3d7"/><path d="M1552.8843326101626,28.316629542213573L1438.377400497906,206.1714669483229L1566.5490207312102,277.45188353934236Z" fill="#75aed5" stroke="#75aed5"/><path d="M1552.8843326101626,28.316629542213573L1566.5490207312102,277.45188353934236L1703.9413124341538,250.71608565435955Z" fill="#74a8d2" stroke="#74a8d2"/><path d="M1552.8843326101626,28.316629542213573L1703.9413124341538,250.71608565435955L1665.4795294144894,15.7864695284483Z" fill="#79a9d1" stroke="#79a9d1"/><path d="M1665.4795294144894,15.7864695284483L1703.9413124341538,250.71608565435955L1822.4631876886774,71.2005095541181Z" fill="#78a3ce" stroke="#78a3ce"/><path d="M1822.4631876886774,71.2005095541181L1703.9413124341538,250.71608565435955L1833.311646746984,195.57033906105912Z" fill="#759ecd" stroke="#759ecd"/><path d="M1822.4631876886774,71.2005095541181L1833.311646746984,195.57033906105912L2002.8384870823124,183.87382990680723Z" fill="#7698c9" stroke="#7698c9"/><path d="M1822.4631876886774,71.2005095541181L2002.8384870823124,183.87382990680723L2034.4482181885594,41.13586819844702Z" fill="#7996c7" stroke="#7996c7"/><path d="M2034.4482181885594,41.13586819844702L2002.8384870823124,183.87382990680723L2050.814284055081,648.7207874109924Z" fill="#6588c4" stroke="#6588c4"/><path d="M-21.96165291297062,221.66889229168765L-93.14720636252252,408.4071211669459L119.83681545091964,430.3217624432045Z" fill="#d2e5f9" stroke="#d2e5f9"/><path d="M-21.96165291297062,221.66889229168765L119.83681545091964,430.3217624432045L112.5535819800431,203.65325399277557Z" fill="#dbe8f8" stroke="#dbe8f8"/><path d="M112.5535819800431,203.65325399277557L119.83681545091964,430.3217624432045L181.22944393138718,231.88073100972377Z" fill="#d7e5f7" stroke="#d7e5f7"/><path d="M181.22944393138718,231.88073100972377L119.83681545091964,430.3217624432045L203.4725170951492,415.1624238216254Z" fill="#c8def5" stroke="#c8def5"/><path d="M181.22944393138718,231.88073100972377L203.4725170951492,415.1624238216254L360.72650428255037,392.4035509351867Z" fill="#c6dcf3" stroke="#c6dcf3"/><path d="M181.22944393138718,231.88073100972377L360.72650428255037,392.4035509351867L391.0384041971604,283.7055451139315Z" fill="#cbddf2" stroke="#cbddf2"/><path d="M391.0384041971604,283.7055451139315L360.72650428255037,392.4035509351867L507.3186159575736,433.6980379581025Z" fill="#b8d3ef" stroke="#b8d3ef"/><path d="M391.0384041971604,283.7055451139315L507.3186159575736,433.6980379581025L494.11059560146407,200.88614908225543Z" fill="#c2d7ef" stroke="#c2d7ef"/><path d="M494.11059560146407,200.88614908225543L507.3186159575736,433.6980379581025L654.9494661412753,276.2858426081738Z" fill="#bcd4ed" stroke="#bcd4ed"/><path d="M654.9494661412753,276.2858426081738L507.3186159575736,433.6980379581025L692.0546168453857,325.2007814627244Z" fill="#afcfec" stroke="#afcfec"/><path d="M654.9494661412753,276.2858426081738L692.0546168453857,325.2007814627244L787.614194235017,233.2299636489329Z" fill="#b5d1eb" stroke="#b5d1eb"/><path d="M787.614194235017,233.2299636489329L692.0546168453857,325.2007814627244L837.9018315827623,371.08449015022734Z" fill="#aacce9" stroke="#aacce9"/><path d="M787.614194235017,233.2299636489329L837.9018315827623,371.08449015022734L991.7172901773397,327.26384557469675Z" fill="#a2c9e7" stroke="#a2c9e7"/><path d="M787.614194235017,233.2299636489329L991.7172901773397,327.26384557469675L1024.016226159626,215.17272999768244Z" fill="#a7cbe7" stroke="#a7cbe7"/><path d="M1024.016226159626,215.17272999768244L991.7172901773397,327.26384557469675L1098.5694483099296,229.18525779731183Z" fill="#9dc6e4" stroke="#9dc6e4"/><path d="M1098.5694483099296,229.18525779731183L991.7172901773397,327.26384557469675L1080.4432174344029,381.81643064429784Z" fill="#90c0e3" stroke="#90c0e3"/><path d="M1098.5694483099296,229.18525779731183L1080.4432174344029,381.81643064429784L1275.481610979836,423.9397071877111Z" fill="#7fb8df" stroke="#7fb8df"/><path d="M1098.5694483099296,229.18525779731183L1275.481610979836,423.9397071877111L1267.6348321835999,167.81815159285333Z" fill="#85badf" stroke="#85badf"/><path d="M1267.6348321835999,167.81815159285333L1275.481610979836,423.9397071877111L1406.8405026771209,345.6921460364489Z" fill="#72b1da" stroke="#72b1da"/><path d="M1267.6348321835999,167.81815159285333L1406.8405026771209,345.6921460364489L1438.377400497906,206.1714669483229Z" fill="#79b3da" stroke="#79b3da"/><path d="M1438.377400497906,206.1714669483229L1406.8405026771209,345.6921460364489L1566.5490207312102,277.45188353934236Z" fill="#68aad6" stroke="#68aad6"/><path d="M1566.5490207312102,277.45188353934236L1406.8405026771209,345.6921460364489L1548.376396323992,366.28844040549956Z" fill="#5ea4d4" stroke="#5ea4d4"/><path d="M1566.5490207312102,277.45188353934236L1548.376396323992,366.28844040549956L1703.9413124341538,250.71608565435955Z" fill="#64a1d1" stroke="#64a1d1"/><path d="M1703.9413124341538,250.71608565435955L1548.376396323992,366.28844040549956L1730.782532099292,430.28271586119035Z" fill="#5a99cf" stroke="#5a99cf"/><path d="M1703.9413124341538,250.71608565435955L1730.782532099292,430.28271586119035L1887.508257254703,338.3852312629281Z" fill="#5c93cb" stroke="#5c93cb"/><path d="M1703.9413124341538,250.71608565435955L1887.508257254703,338.3852312629281L1833.311646746984,195.57033906105912Z" fill="#6b98cb" stroke="#6b98cb"/><path d="M1833.311646746984,195.57033906105912L1887.508257254703,338.3852312629281L1970.0330045664855,319.59605305752365Z" fill="#6791c8" stroke="#6791c8"/><path d="M1833.311646746984,195.57033906105912L1970.0330045664855,319.59605305752365L2002.8384870823124,183.87382990680723Z" fill="#7093c8" stroke="#7093c8"/><path d="M2002.8384870823124,183.87382990680723L1970.0330045664855,319.59605305752365L2007.825798192554,493.86326562176777Z" fill="#5e87c4" stroke="#5e87c4"/><path d="M2002.8384870823124,183.87382990680723L2007.825798192554,493.86326562176777L2050.814284055081,648.7207874109924Z" fill="#497cc2" stroke="#497cc2"/><path d="M-93.14720636252252,408.4071211669459L-122.62233376561994,985.9421644755181L-65.98703930800211,840.5919461170907Z" fill="#83b5e2" stroke="#83b5e2"/><path d="M-93.14720636252252,408.4071211669459L-65.98703930800211,840.5919461170907L-36.14425297484722,694.4767881240074Z" fill="#98c3e9" stroke="#98c3e9"/><path d="M-93.14720636252252,408.4071211669459L-36.14425297484722,694.4767881240074L-35.7734800467138,489.3590922835712Z" fill="#b1d3f2" stroke="#b1d3f2"/><path d="M-93.14720636252252,408.4071211669459L-35.7734800467138,489.3590922835712L119.83681545091964,430.3217624432045Z" fill="#c1ddf7" stroke="#c1ddf7"/><path d="M119.83681545091964,430.3217624432045L-35.7734800467138,489.3590922835712L72.14694300506494,550.9707405327329Z" fill="#b4d5f3" stroke="#b4d5f3"/><path d="M119.83681545091964,430.3217624432045L72.14694300506494,550.9707405327329L178.6778063722532,563.8243546313481Z" fill="#abcff0" stroke="#abcff0"/><path d="M119.83681545091964,430.3217624432045L178.6778063722532,563.8243546313481L203.4725170951492,415.1624238216254Z" fill="#b3d4f3" stroke="#b3d4f3"/><path d="M203.4725170951492,415.1624238216254L178.6778063722532,563.8243546313481L376.8755069107529,566.4142338248632Z" fill="#a4caed" stroke="#a4caed"/><path d="M203.4725170951492,415.1624238216254L376.8755069107529,566.4142338248632L360.72650428255037,392.4035509351867Z" fill="#add0f0" stroke="#add0f0"/><path d="M360.72650428255037,392.4035509351867L376.8755069107529,566.4142338248632L478.6582000760305,545.4155939491416Z" fill="#9fc6eb" stroke="#9fc6eb"/><path d="M360.72650428255037,392.4035509351867L478.6582000760305,545.4155939491416L507.3186159575736,433.6980379581025Z" fill="#a6cbed" stroke="#a6cbed"/><path d="M507.3186159575736,433.6980379581025L478.6582000760305,545.4155939491416L659.2569697322049,552.5297737072307Z" fill="#94bfe7" stroke="#94bfe7"/><path d="M507.3186159575736,433.6980379581025L659.2569697322049,552.5297737072307L692.0546168453857,325.2007814627244Z" fill="#9ec7ea" stroke="#9ec7ea"/><path d="M692.0546168453857,325.2007814627244L659.2569697322049,552.5297737072307L807.2881633501263,472.9413935842979Z" fill="#94c2e8" stroke="#94c2e8"/><path d="M692.0546168453857,325.2007814627244L807.2881633501263,472.9413935842979L837.9018315827623,371.08449015022734Z" fill="#9bc5e8" stroke="#9bc5e8"/><path d="M837.9018315827623,371.08449015022734L807.2881633501263,472.9413935842979L921.8838155420814,514.8559224051199Z" fill="#89bde5" stroke="#89bde5"/><path d="M837.9018315827623,371.08449015022734L921.8838155420814,514.8559224051199L991.7172901773397,327.26384557469675Z" fill="#8dc0e5" stroke="#8dc0e5"/><path d="M991.7172901773397,327.26384557469675L921.8838155420814,514.8559224051199L1080.4432174344029,381.81643064429784Z" fill="#85bbe3" stroke="#85bbe3"/><path d="M1080.4432174344029,381.81643064429784L921.8838155420814,514.8559224051199L1070.4025371474852,537.2270024629272Z" fill="#74b3e0" stroke="#74b3e0"/><path d="M1080.4432174344029,381.81643064429784L1070.4025371474852,537.2270024629272L1223.0781696019094,527.8724231188587Z" fill="#67acdc" stroke="#67acdc"/><path d="M1080.4432174344029,381.81643064429784L1223.0781696019094,527.8724231188587L1275.481610979836,423.9397071877111Z" fill="#67addc" stroke="#67addc"/><path d="M1275.481610979836,423.9397071877111L1223.0781696019094,527.8724231188587L1394.665131955237,479.02062777361016Z" fill="#55a3d7" stroke="#55a3d7"/><path d="M1275.481610979836,423.9397071877111L1394.665131955237,479.02062777361016L1406.8405026771209,345.6921460364489Z" fill="#5aa6d7" stroke="#5aa6d7"/><path d="M1406.8405026771209,345.6921460364489L1394.665131955237,479.02062777361016L1548.376396323992,366.28844040549956Z" fill="#53a2d4" stroke="#53a2d4"/><path d="M1548.376396323992,366.28844040549956L1394.665131955237,479.02062777361016L1519.6999011075623,581.1057235645661Z" fill="#4298d1" stroke="#4298d1"/><path d="M1548.376396323992,366.28844040549956L1519.6999011075623,581.1057235645661L1701.2846534675102,504.39285598366587Z" fill="#4090cd" stroke="#4090cd"/><path d="M1548.376396323992,366.28844040549956L1701.2846534675102,504.39285598366587L1730.782532099292,430.28271586119035Z" fill="#4a92cd" stroke="#4a92cd"/><path d="M1730.782532099292,430.28271586119035L1701.2846534675102,504.39285598366587L1869.053970332693,544.6971969493834Z" fill="#3e85c7" stroke="#3e85c7"/><path d="M1730.782532099292,430.28271586119035L1869.053970332693,544.6971969493834L1887.508257254703,338.3852312629281Z" fill="#4a88c8" stroke="#4a88c8"/><path d="M1887.508257254703,338.3852312629281L1869.053970332693,544.6971969493834L2007.825798192554,493.86326562176777Z" fill="#4680c4" stroke="#4680c4"/><path d="M1887.508257254703,338.3852312629281L2007.825798192554,493.86326562176777L1970.0330045664855,319.59605305752365Z" fill="#5485c5" stroke="#5485c5"/><path d="M-35.7734800467138,489.3590922835712L-36.14425297484722,694.4767881240074L72.14694300506494,550.9707405327329Z" fill="#a4caed" stroke="#a4caed"/><path d="M72.14694300506494,550.9707405327329L-36.14425297484722,694.4767881240074L51.9766816787727,665.0431144491204Z" fill="#95c1e8" stroke="#95c1e8"/><path d="M72.14694300506494,550.9707405327329L51.9766816787727,665.0431144491204L178.6778063722532,563.8243546313481Z" fill="#9bc4ea" stroke="#9bc4ea"/><path d="M178.6778063722532,563.8243546313481L51.9766816787727,665.0431144491204L232.30796642306473,765.7924232624221Z" fill="#88b8e3" stroke="#88b8e3"/><path d="M178.6778063722532,563.8243546313481L232.30796642306473,765.7924232624221L267.4552220616672,727.0145032374438Z" fill="#80b2e0" stroke="#80b2e0"/><path d="M178.6778063722532,563.8243546313481L267.4552220616672,727.0145032374438L376.8755069107529,566.4142338248632Z" fill="#8bbae4" stroke="#8bbae4"/><path d="M376.8755069107529,566.4142338248632L267.4552220616672,727.0145032374438L426.2507984133333,635.8875496404889Z" fill="#82b3e0" stroke="#82b3e0"/><path d="M376.8755069107529,566.4142338248632L426.2507984133333,635.8875496404889L478.6582000760305,545.4155939491416Z" fill="#8cb9e3" stroke="#8cb9e3"/><path d="M478.6582000760305,545.4155939491416L426.2507984133333,635.8875496404889L583.5132646643806,669.3018140824272Z" fill="#80b2df" stroke="#80b2df"/><path d="M478.6582000760305,545.4155939491416L583.5132646643806,669.3018140824272L659.2569697322049,552.5297737072307Z" fill="#80b3e0" stroke="#80b3e0"/><path d="M659.2569697322049,552.5297737072307L583.5132646643806,669.3018140824272L621.4690119519191,706.7055869918524Z" fill="#70aadb" stroke="#70aadb"/><path d="M659.2569697322049,552.5297737072307L621.4690119519191,706.7055869918524L815.065171267969,625.6448136686274Z" fill="#6ea9db" stroke="#6ea9db"/><path d="M659.2569697322049,552.5297737072307L815.065171267969,625.6448136686274L807.2881633501263,472.9413935842979Z" fill="#7ab3e0" stroke="#7ab3e0"/><path d="M807.2881633501263,472.9413935842979L815.065171267969,625.6448136686274L921.8838155420814,514.8559224051199Z" fill="#77b1df" stroke="#77b1df"/><path d="M921.8838155420814,514.8559224051199L815.065171267969,625.6448136686274L999.4842269951148,693.8806940810625Z" fill="#61a5d8" stroke="#61a5d8"/><path d="M921.8838155420814,514.8559224051199L999.4842269951148,693.8806940810625L1070.4025371474852,537.2270024629272Z" fill="#60a5d9" stroke="#60a5d9"/><path d="M1070.4025371474852,537.2270024629272L999.4842269951148,693.8806940810625L1082.3990491443167,646.0305548685596Z" fill="#509bd3" stroke="#509bd3"/><path d="M1070.4025371474852,537.2270024629272L1082.3990491443167,646.0305548685596L1223.0781696019094,527.8724231188587Z" fill="#549fd5" stroke="#549fd5"/><path d="M1223.0781696019094,527.8724231188587L1082.3990491443167,646.0305548685596L1291.9785414106373,626.8095807578662Z" fill="#4597d1" stroke="#4597d1"/><path d="M1223.0781696019094,527.8724231188587L1291.9785414106373,626.8095807578662L1394.665131955237,479.02062777361016Z" fill="#4598d2" stroke="#4598d2"/><path d="M1394.665131955237,479.02062777361016L1291.9785414106373,626.8095807578662L1457.418666871208,645.6577421724179Z" fill="#338ecc" stroke="#338ecc"/><path d="M1394.665131955237,479.02062777361016L1457.418666871208,645.6577421724179L1519.6999011075623,581.1057235645661Z" fill="#2e8ccb" stroke="#2e8ccb"/><path d="M1519.6999011075623,581.1057235645661L1457.418666871208,645.6577421724179L1572.2799372046818,641.8714371937464Z" fill="#2180c4" stroke="#2180c4"/><path d="M1519.6999011075623,581.1057235645661L1572.2799372046818,641.8714371937464L1701.2846534675102,504.39285598366587Z" fill="#2c82c6" stroke="#2c82c6"/><path d="M1701.2846534675102,504.39285598366587L1572.2799372046818,641.8714371937464L1774.152688791606,694.502654213353Z" fill="#2378c0" stroke="#2378c0"/><path d="M1701.2846534675102,504.39285598366587L1774.152688791606,694.502654213353L1869.053970332693,544.6971969493834Z" fill="#2a77bf" stroke="#2a77bf"/><path d="M1869.053970332693,544.6971969493834L1774.152688791606,694.502654213353L1891.0126984067883,633.294545582325Z" fill="#216dba" stroke="#216dba"/><path d="M1869.053970332693,544.6971969493834L1891.0126984067883,633.294545582325L2007.825798192554,493.86326562176777Z" fill="#3072bd" stroke="#3072bd"/><path d="M2007.825798192554,493.86326562176777L1891.0126984067883,633.294545582325L2050.814284055081,648.7207874109924Z" fill="#2869b8" stroke="#2869b8"/><path d="M-36.14425297484722,694.4767881240074L-65.98703930800211,840.5919461170907L108.30741327395762,832.3644988372879Z" fill="#79abdc" stroke="#79abdc"/><path d="M-36.14425297484722,694.4767881240074L108.30741327395762,832.3644988372879L51.9766816787727,665.0431144491204Z" fill="#80b2e0" stroke="#80b2e0"/><path d="M51.9766816787727,665.0431144491204L108.30741327395762,832.3644988372879L232.30796642306473,765.7924232624221Z" fill="#75abdc" stroke="#75abdc"/><path d="M267.4552220616672,727.0145032374438L232.30796642306473,765.7924232624221L413.3181716186744,838.3265047851338Z" fill="#68a2d7" stroke="#68a2d7"/><path d="M267.4552220616672,727.0145032374438L413.3181716186744,838.3265047851338L426.2507984133333,635.8875496404889Z" fill="#6da6d9" stroke="#6da6d9"/><path d="M426.2507984133333,635.8875496404889L413.3181716186744,838.3265047851338L559.074828730617,830.9978378990381Z" fill="#609cd4" stroke="#609cd4"/><path d="M426.2507984133333,635.8875496404889L559.074828730617,830.9978378990381L583.5132646643806,669.3018140824272Z" fill="#68a3d7" stroke="#68a3d7"/><path d="M583.5132646643806,669.3018140824272L559.074828730617,830.9978378990381L621.4690119519191,706.7055869918524Z" fill="#5e9dd4" stroke="#5e9dd4"/><path d="M621.4690119519191,706.7055869918524L559.074828730617,830.9978378990381L731.1218211680465,821.5988789412141Z" fill="#5394cf" stroke="#5394cf"/><path d="M621.4690119519191,706.7055869918524L731.1218211680465,821.5988789412141L787.3616900481281,807.8525143266055Z" fill="#4d92ce" stroke="#4d92ce"/><path d="M621.4690119519191,706.7055869918524L787.3616900481281,807.8525143266055L815.065171267969,625.6448136686274Z" fill="#579cd3" stroke="#579cd3"/><path d="M815.065171267969,625.6448136686274L787.3616900481281,807.8525143266055L923.9783343336254,825.8668257497907Z" fill="#4792ce" stroke="#4792ce"/><path d="M815.065171267969,625.6448136686274L923.9783343336254,825.8668257497907L999.4842269951148,693.8806940810625Z" fill="#4a95d0" stroke="#4a95d0"/><path d="M999.4842269951148,693.8806940810625L923.9783343336254,825.8668257497907L1114.9715304873478,815.3150341070577Z" fill="#3487c8" stroke="#3487c8"/><path d="M999.4842269951148,693.8806940810625L1114.9715304873478,815.3150341070577L1082.3990491443167,646.0305548685596Z" fill="#3a8dcb" stroke="#3a8dcb"/><path d="M1082.3990491443167,646.0305548685596L1114.9715304873478,815.3150341070577L1291.9785414106373,626.8095807578662Z" fill="#338bca" stroke="#338bca"/><path d="M1291.9785414106373,626.8095807578662L1114.9715304873478,815.3150341070577L1275.4814049220004,816.1361825633871Z" fill="#1f7ec3" stroke="#1f7ec3"/><path d="M1291.9785414106373,626.8095807578662L1275.4814049220004,816.1361825633871L1457.418666871208,645.6577421724179Z" fill="#1f80c4" stroke="#1f80c4"/><path d="M1457.418666871208,645.6577421724179L1275.4814049220004,816.1361825633871L1409.275854721101,850.6775325952402Z" fill="#0a73bd" stroke="#0a73bd"/><path d="M1457.418666871208,645.6577421724179L1409.275854721101,850.6775325952402L1519.4681248172221,845.5233356621085Z" fill="#006cba" stroke="#006cba"/><path d="M1457.418666871208,645.6577421724179L1519.4681248172221,845.5233356621085L1572.2799372046818,641.8714371937464Z" fill="#0d73bd" stroke="#0d73bd"/><path d="M1572.2799372046818,641.8714371937464L1519.4681248172221,845.5233356621085L1724.8428476272554,831.0822384571862Z" fill="#0065b5" stroke="#0065b5"/><path d="M1572.2799372046818,641.8714371937464L1724.8428476272554,831.0822384571862L1774.152688791606,694.502654213353Z" fill="#0b67b7" stroke="#0b67b7"/><path d="M1774.152688791606,694.502654213353L1724.8428476272554,831.0822384571862L1824.0886846029298,843.5158950159031Z" fill="#0058ae" stroke="#0058ae"/><path d="M1774.152688791606,694.502654213353L1824.0886846029298,843.5158950159031L1891.0126984067883,633.294545582325Z" fill="#0b5fb2" stroke="#0b5fb2"/><path d="M1891.0126984067883,633.294545582325L1824.0886846029298,843.5158950159031L2040.6316754404763,858.8396845717898Z" fill="#0051ab" stroke="#0051ab"/><path d="M1891.0126984067883,633.294545582325L2040.6316754404763,858.8396845717898L2050.814284055081,648.7207874109924Z" fill="#0d56ad" stroke="#0d56ad"/><path d="M2050.814284055081,648.7207874109924L2040.6316754404763,858.8396845717898L2049.7775725416286,1028.0847649521013Z" fill="#0040a1" stroke="#0040a1"/><path d="M2050.814284055081,648.7207874109924L2049.7775725416286,1028.0847649521013L2053.99293719826,1168.130875030083Z" fill="#003099" stroke="#003099"/><path d="M-65.98703930800211,840.5919461170907L-122.62233376561994,985.9421644755181L51.12183540549805,1023.657770118419Z" fill="#7b96d0" stroke="#7b96d0"/><path d="M-65.98703930800211,840.5919461170907L51.12183540549805,1023.657770118419L108.30741327395762,832.3644988372879Z" fill="#779ad3" stroke="#779ad3"/><path d="M108.30741327395762,832.3644988372879L51.12183540549805,1023.657770118419L220.16063530909696,973.5671196284499Z" fill="#7290cd" stroke="#7290cd"/><path d="M108.30741327395762,832.3644988372879L220.16063530909696,973.5671196284499L232.30796642306473,765.7924232624221Z" fill="#6f9ad3" stroke="#6f9ad3"/><path d="M232.30796642306473,765.7924232624221L220.16063530909696,973.5671196284499L413.3181716186744,838.3265047851338Z" fill="#6996d0" stroke="#6996d0"/><path d="M413.3181716186744,838.3265047851338L220.16063530909696,973.5671196284499L407.11365663002255,978.4454359129743Z" fill="#6689ca" stroke="#6689ca"/><path d="M413.3181716186744,838.3265047851338L407.11365663002255,978.4454359129743L565.3720009021803,936.6623363714177Z" fill="#6086c8" stroke="#6086c8"/><path d="M413.3181716186744,838.3265047851338L565.3720009021803,936.6623363714177L559.074828730617,830.9978378990381Z" fill="#5c8ccb" stroke="#5c8ccb"/><path d="M559.074828730617,830.9978378990381L565.3720009021803,936.6623363714177L697.0531832935949,932.6594947366293Z" fill="#5584c7" stroke="#5584c7"/><path d="M559.074828730617,830.9978378990381L697.0531832935949,932.6594947366293L731.1218211680465,821.5988789412141Z" fill="#5188c9" stroke="#5188c9"/><path d="M731.1218211680465,821.5988789412141L697.0531832935949,932.6594947366293L829.852215166831,937.0769187287319Z" fill="#4a80c4" stroke="#4a80c4"/><path d="M731.1218211680465,821.5988789412141L829.852215166831,937.0769187287319L787.3616900481281,807.8525143266055Z" fill="#4885c7" stroke="#4885c7"/><path d="M787.3616900481281,807.8525143266055L829.852215166831,937.0769187287319L923.9783343336254,825.8668257497907Z" fill="#4383c5" stroke="#4383c5"/><path d="M923.9783343336254,825.8668257497907L829.852215166831,937.0769187287319L928.6019431575623,998.2177939703572Z" fill="#3f77bf" stroke="#3f77bf"/><path d="M923.9783343336254,825.8668257497907L928.6019431575623,998.2177939703572L1125.4346655463005,977.2662782395932Z" fill="#3672bc" stroke="#3672bc"/><path d="M923.9783343336254,825.8668257497907L1125.4346655463005,977.2662782395932L1114.9715304873478,815.3150341070577Z" fill="#2f77bf" stroke="#2f77bf"/><path d="M1114.9715304873478,815.3150341070577L1125.4346655463005,977.2662782395932L1275.4814049220004,816.1361825633871Z" fill="#2270bb" stroke="#2270bb"/><path d="M1275.4814049220004,816.1361825633871L1125.4346655463005,977.2662782395932L1332.7892154568533,1017.8066046099229Z" fill="#1962b4" stroke="#1962b4"/><path d="M1275.4814049220004,816.1361825633871L1332.7892154568533,1017.8066046099229L1390.6246939909724,987.4151776764394Z" fill="#0f5db1" stroke="#0f5db1"/><path d="M1275.4814049220004,816.1361825633871L1390.6246939909724,987.4151776764394L1409.275854721101,850.6775325952402Z" fill="#0c63b4" stroke="#0c63b4"/><path d="M1409.275854721101,850.6775325952402L1390.6246939909724,987.4151776764394L1519.4681248172221,845.5233356621085Z" fill="#035db1" stroke="#035db1"/><path d="M1519.4681248172221,845.5233356621085L1390.6246939909724,987.4151776764394L1549.45165777978,1003.9647927917031Z" fill="#0052ab" stroke="#0052ab"/><path d="M1519.4681248172221,845.5233356621085L1549.45165777978,1003.9647927917031L1692.4154748719814,1007.2212374334547Z" fill="#004ca7" stroke="#004ca7"/><path d="M1519.4681248172221,845.5233356621085L1692.4154748719814,1007.2212374334547L1724.8428476272554,831.0822384571862Z" fill="#0051aa" stroke="#0051aa"/><path d="M1724.8428476272554,831.0822384571862L1692.4154748719814,1007.2212374334547L1862.7822829060192,919.6320285046033Z" fill="#0046a4" stroke="#0046a4"/><path d="M1724.8428476272554,831.0822384571862L1862.7822829060192,919.6320285046033L1824.0886846029298,843.5158950159031Z" fill="#004ca7" stroke="#004ca7"/><path d="M1824.0886846029298,843.5158950159031L1862.7822829060192,919.6320285046033L2040.6316754404763,858.8396845717898Z" fill="#0044a4" stroke="#0044a4"/><path d="M2040.6316754404763,858.8396845717898L1862.7822829060192,919.6320285046033L2049.7775725416286,1028.0847649521013Z" fill="#00369c" stroke="#00369c"/><path d="M-122.62233376561994,985.9421644755181L-70.32197019024984,1126.9029890109528L51.12183540549805,1023.657770118419Z" fill="#7b88c9" stroke="#7b88c9"/><path d="M51.12183540549805,1023.657770118419L-70.32197019024984,1126.9029890109528L66.10125800827335,1134.3803775545998Z" fill="#787ec3" stroke="#787ec3"/><path d="M51.12183540549805,1023.657770118419L66.10125800827335,1134.3803775545998L181.19228528813335,1100.534171581681Z" fill="#737cc3" stroke="#737cc3"/><path d="M51.12183540549805,1023.657770118419L181.19228528813335,1100.534171581681L220.16063530909696,973.5671196284499Z" fill="#7181c5" stroke="#7181c5"/><path d="M220.16063530909696,973.5671196284499L181.19228528813335,1100.534171581681L327.3628183840458,1179.1657474440824Z" fill="#6c76bf" stroke="#6c76bf"/><path d="M220.16063530909696,973.5671196284499L327.3628183840458,1179.1657474440824L407.11365663002255,978.4454359129743Z" fill="#6879c1" stroke="#6879c1"/><path d="M407.11365663002255,978.4454359129743L327.3628183840458,1179.1657474440824L468.76599865744237,1076.3046559092288Z" fill="#6371bc" stroke="#6371bc"/><path d="M407.11365663002255,978.4454359129743L468.76599865744237,1076.3046559092288L565.3720009021803,936.6623363714177Z" fill="#5f7ac1" stroke="#5f7ac1"/><path d="M565.3720009021803,936.6623363714177L468.76599865744237,1076.3046559092288L666.0282838906513,1130.1122767647614Z" fill="#5870bc" stroke="#5870bc"/><path d="M565.3720009021803,936.6623363714177L666.0282838906513,1130.1122767647614L697.0531832935949,932.6594947366293Z" fill="#5274be" stroke="#5274be"/><path d="M697.0531832935949,932.6594947366293L666.0282838906513,1130.1122767647614L852.028078610009,1101.6367757578696Z" fill="#4b69b8" stroke="#4b69b8"/><path d="M697.0531832935949,932.6594947366293L852.028078610009,1101.6367757578696L829.852215166831,937.0769187287319Z" fill="#4771bc" stroke="#4771bc"/><path d="M829.852215166831,937.0769187287319L852.028078610009,1101.6367757578696L928.6019431575623,998.2177939703572Z" fill="#416bb9" stroke="#416bb9"/><path d="M928.6019431575623,998.2177939703572L852.028078610009,1101.6367757578696L927.7001859326333,1105.6223793968115Z" fill="#3f62b3" stroke="#3f62b3"/><path d="M928.6019431575623,998.2177939703572L927.7001859326333,1105.6223793968115L1125.4346655463005,977.2662782395932Z" fill="#3664b5" stroke="#3664b5"/><path d="M1125.4346655463005,977.2662782395932L927.7001859326333,1105.6223793968115L1143.8231193916292,1136.9374760290916Z" fill="#2e58af" stroke="#2e58af"/><path d="M1125.4346655463005,977.2662782395932L1143.8231193916292,1136.9374760290916L1268.2551496450444,1129.027614366974Z" fill="#2151aa" stroke="#2151aa"/><path d="M1125.4346655463005,977.2662782395932L1268.2551496450444,1129.027614366974L1332.7892154568533,1017.8066046099229Z" fill="#1a53ac" stroke="#1a53ac"/><path d="M1332.7892154568533,1017.8066046099229L1268.2551496450444,1129.027614366974L1400.7415292110516,1120.9256286871641Z" fill="#0f47a5" stroke="#0f47a5"/><path d="M1332.7892154568533,1017.8066046099229L1400.7415292110516,1120.9256286871641L1390.6246939909724,987.4151776764394Z" fill="#0a4ba7" stroke="#0a4ba7"/><path d="M1390.6246939909724,987.4151776764394L1400.7415292110516,1120.9256286871641L1549.45165777978,1003.9647927917031Z" fill="#0247a5" stroke="#0247a5"/><path d="M1549.45165777978,1003.9647927917031L1400.7415292110516,1120.9256286871641L1553.7123368511845,1100.4416554559411Z" fill="#003fa0" stroke="#003fa0"/><path d="M1549.45165777978,1003.9647927917031L1553.7123368511845,1100.4416554559411L1692.4154748719814,1007.2212374334547Z" fill="#003ea1" stroke="#003ea1"/><path d="M1692.4154748719814,1007.2212374334547L1553.7123368511845,1100.4416554559411L1693.7944459268278,1181.7654705864286Z" fill="#00339a" stroke="#00339a"/><path d="M1692.4154748719814,1007.2212374334547L1693.7944459268278,1181.7654705864286L1853.3148510510428,1181.2717692599454Z" fill="#002995" stroke="#002995"/><path d="M1692.4154748719814,1007.2212374334547L1853.3148510510428,1181.2717692599454L1862.7822829060192,919.6320285046033Z" fill="#00329a" stroke="#00329a"/><path d="M1862.7822829060192,919.6320285046033L1853.3148510510428,1181.2717692599454L2049.7775725416286,1028.0847649521013Z" fill="#002a96" stroke="#002a96"/><path d="M2049.7775725416286,1028.0847649521013L1853.3148510510428,1181.2717692599454L2053.99293719826,1168.130875030083Z" fill="#001a8d" stroke="#001a8d"/><path d="M-70.32197019024984,1126.9029890109528L327.3628183840458,1179.1657474440824L66.10125800827335,1134.3803775545998Z" fill="#7373bd" stroke="#7373bd"/><path d="M66.10125800827335,1134.3803775545998L327.3628183840458,1179.1657474440824L181.19228528813335,1100.534171581681Z" fill="#6e70bc" stroke="#6e70bc"/><path d="M327.3628183840458,1179.1657474440824L1693.7944459268278,1181.7654705864286L1143.8231193916292,1136.9374760290916Z" fill="#2f4fa8" stroke="#2f4fa8"/><path d="M327.3628183840458,1179.1657474440824L1143.8231193916292,1136.9374760290916L666.0282838906513,1130.1122767647614Z" fill="#4d5db1" stroke="#4d5db1"/><path d="M327.3628183840458,1179.1657474440824L666.0282838906513,1130.1122767647614L468.76599865744237,1076.3046559092288Z" fill="#5e67b7" stroke="#5e67b7"/><path d="M666.0282838906513,1130.1122767647614L1143.8231193916292,1136.9374760290916L927.7001859326333,1105.6223793968115Z" fill="#3e59af" stroke="#3e59af"/><path d="M666.0282838906513,1130.1122767647614L927.7001859326333,1105.6223793968115L852.028078610009,1101.6367757578696Z" fill="#455eb1" stroke="#455eb1"/><path d="M1143.8231193916292,1136.9374760290916L1693.7944459268278,1181.7654705864286L1268.2551496450444,1129.027614366974Z" fill="#0b3c9f" stroke="#0b3c9f"/><path d="M1268.2551496450444,1129.027614366974L1693.7944459268278,1181.7654705864286L1400.7415292110516,1120.9256286871641Z" fill="#01379c" stroke="#01379c"/><path d="M1400.7415292110516,1120.9256286871641L1693.7944459268278,1181.7654705864286L1553.7123368511845,1100.4416554559411Z" fill="#00339a" stroke="#00339a"/></g></svg>